<svg xmlns="http://www.w3.org/2000/svg" viewBox="0 0 1019 556">
<rect width="1019" height="556" rx="78" fill="#e8e4d8"/>
<g transform="translate(74,74)" fill="#0e130f">
<g>
<metadata>
Created by potrace 1.16, written by Peter Selinger 2001-2019
</metadata>
<g transform="translate(-0.122634,409.000000) scale(0.100000,-0.100000)"
 stroke="none">
<path d="M16 4074 c-9 -22 -6 -1375 3 -1397 6 -17 8 -17 31 1 44 34 139 72
182 72 59 0 116 -20 139 -48 21 -28 25 -82 7 -100 -17 -17 -58 -15 -58 3 0 22
-36 38 -59 26 -24 -13 -30 -31 -21 -56 14 -37 48 -58 103 -63 76 -6 120 15
159 78 37 59 62 69 121 46 47 -18 43 -12 122 -161 157 -297 247 -426 401 -575
73 -71 112 -99 172 -128 l77 -37 205 0 c226 -1 235 -2 321 -68 36 -28 52 -50
77 -111 53 -126 53 -196 0 -196 -16 0 -19 -6 -16 -32 3 -32 7 -35 78 -68 25
-12 25 -139 1 -220 -22 -71 -93 -190 -114 -190 -7 0 -20 9 -30 20 -22 26 -33
25 -62 -5 -32 -31 -34 -91 -4 -129 28 -36 80 -35 140 2 91 58 195 228 224 363
43 208 46 217 78 253 41 46 86 57 116 27 36 -36 21 -101 -24 -101 -20 0 -25
-5 -25 -25 0 -44 71 -55 124 -19 61 41 71 125 35 280 -18 80 -19 99 -9 149 15
71 37 95 89 95 52 0 86 -14 116 -46 32 -35 32 -63 -2 -89 -33 -27 -27 -69 11
-79 37 -9 53 1 75 50 24 50 26 93 9 176 -9 42 -9 69 -2 97 9 34 8 44 -13 78
-12 21 -23 49 -23 62 0 20 4 22 24 17 49 -12 76 49 34 78 -61 43 -123 3 -141
-92 -12 -63 -12 -63 -42 -56 -57 12 -113 42 -154 84 -34 35 -161 236 -161 255
0 3 -36 66 -80 140 -67 110 -96 148 -171 219 -184 176 -375 279 -611 331 -118
27 -270 33 -350 16 -24 -6 -95 -17 -158 -26 -63 -9 -140 -21 -170 -26 -98 -17
-291 -23 -340 -9 -110 29 -193 197 -129 261 25 25 65 19 92 -13 22 -26 14 -35
-17 -18 -34 18 -56 7 -56 -29 0 -33 30 -61 66 -61 34 0 69 35 83 82 28 94 43
97 118 25 55 -53 57 -56 44 -80 -24 -44 3 -76 54 -63 33 8 48 40 40 83 -4 25
-28 57 -83 115 -87 90 -137 124 -208 137 -53 10 -74 2 -74 -30 0 -28 -26 -23
-48 9 -39 57 -44 87 -46 279 l-1 188 -42 87 c-23 48 -56 108 -74 133 -32 44
-33 45 -90 45 -43 0 -58 -4 -63 -16z m1166 -1339 c3 -3 -3 -22 -13 -43 -27
-51 -26 -152 2 -209 44 -92 159 -123 159 -43 0 24 -6 32 -35 44 -19 8 -35 21
-35 28 0 7 -3 29 -6 49 -9 51 22 83 71 73 31 -5 35 -4 35 15 0 18 6 21 46 21
63 0 102 -28 96 -69 -6 -42 15 -96 50 -132 63 -63 125 -61 194 6 35 33 44 48
44 76 0 44 15 59 60 59 37 0 109 -39 142 -76 30 -35 61 -144 55 -199 -17 -160
-142 -313 -274 -333 -63 -10 -221 2 -303 23 -100 25 -220 87 -271 139 -93 97
-159 243 -159 355 0 58 21 116 61 173 24 34 67 56 81 43z"/>
<path d="M544 4055 c-7 -11 -16 -43 -20 -71 -8 -68 10 -123 81 -238 42 -69 52
-93 43 -103 -14 -17 16 -53 44 -53 25 0 68 -44 68 -68 0 -56 -80 -47 -167 19
-52 39 -64 64 -41 87 17 17 -9 61 -39 68 -32 8 -63 -21 -63 -58 0 -40 33 -100
72 -133 65 -55 189 -106 293 -120 91 -13 99 -16 140 -54 87 -80 177 -111 393
-136 148 -17 172 -22 172 -35 0 -16 32 -40 54 -40 12 0 31 6 41 14 19 14 19
16 3 50 -23 48 -78 73 -234 105 -59 12 -165 69 -212 114 -51 48 -152 186 -175
237 -30 69 -55 171 -50 210 3 26 -2 45 -21 73 -28 40 -34 95 -14 115 25 25
-10 31 -181 34 -165 3 -175 2 -187 -17z"/>
<path d="M1342 4072 c-8 -5 -16 -50 -22 -123 -5 -63 -12 -133 -15 -155 -5 -36
-3 -44 19 -60 28 -22 39 -53 27 -73 -22 -35 -100 43 -80 81 19 36 -49 76 -79
46 -31 -31 3 -102 93 -192 90 -90 121 -112 248 -176 91 -45 117 -63 142 -98
24 -36 30 -53 28 -93 -1 -42 3 -52 22 -65 32 -21 61 -10 81 29 22 41 6 113
-42 193 -159 263 -190 334 -180 417 8 58 23 91 74 157 33 44 43 97 20 104 -28
9 -324 15 -336 8z"/>
<path d="M1978 4069 c-12 -7 -18 -22 -18 -49 0 -52 -30 -278 -40 -306 -5 -12
-22 -28 -37 -36 -36 -17 -41 -54 -14 -121 28 -70 38 -121 56 -284 36 -313 86
-451 173 -478 28 -8 52 10 52 40 0 25 -29 55 -52 55 -43 0 -70 93 -88 297 -19
219 41 493 122 560 46 37 50 47 32 89 -12 29 -15 63 -13 139 l4 100 -80 2
c-44 2 -88 -2 -97 -8z"/>
<path d="M2704 4069 c-6 -8 -16 -39 -24 -69 -19 -79 -107 -300 -144 -362 -24
-41 -37 -54 -59 -56 l-28 -3 6 -82 c7 -89 -14 -217 -55 -332 -27 -75 -37 -219
-18 -254 19 -36 50 -43 87 -20 37 22 53 56 39 82 -6 12 -16 16 -30 11 -19 -6
-20 -3 -17 68 7 121 77 238 143 238 22 0 34 30 29 68 -8 47 21 114 57 135 24
15 30 25 30 54 0 47 59 169 103 211 19 19 52 39 73 47 l39 13 3 126 3 126 -39
0 c-22 0 -72 3 -113 6 -57 5 -77 3 -85 -7z"/>
<path d="M2885 3333 c-10 -43 -33 -109 -50 -148 -18 -38 -35 -81 -39 -95 -19
-63 -47 -110 -66 -110 -11 0 -20 7 -20 15 0 8 -7 15 -15 15 -12 0 -15 -18 -15
-106 0 -82 -7 -135 -30 -235 -40 -175 -54 -296 -40 -348 18 -69 81 -92 134
-50 41 32 31 65 -26 83 -15 5 -18 18 -18 84 0 156 29 234 87 240 l31 3 3 84
c4 83 5 85 44 125 21 22 47 40 57 40 16 0 18 11 18 128 0 196 -11 352 -25 352
-6 0 -20 -35 -30 -77z"/>
<path d="M2800 2555 c-17 -20 -8 -121 15 -166 22 -42 83 -119 96 -119 5 0 9
43 9 95 0 94 -6 109 -30 80 -16 -19 -35 -19 -54 1 -18 18 -21 75 -5 91 11 11
5 33 -10 33 -5 0 -14 -7 -21 -15z"/>
<path d="M148 2386 c-118 -42 -132 -54 -140 -117 -10 -88 -9 -187 3 -194 6 -4
25 9 43 28 48 53 120 67 208 41 27 -8 61 -71 54 -99 -4 -14 -10 -25 -15 -25
-5 0 -23 -12 -40 -26 -28 -23 -31 -31 -31 -84 0 -48 5 -64 26 -89 14 -17 34
-31 44 -31 52 0 65 30 30 70 -25 29 -25 31 1 64 27 35 67 34 101 -1 14 -16 29
-37 32 -49 11 -38 70 -82 184 -138 62 -31 117 -56 123 -56 30 0 116 -60 156
-110 75 -91 80 -135 19 -164 -27 -12 -40 -14 -65 -5 -26 9 -31 16 -31 41 0 32
-23 57 -51 58 -29 0 -59 -43 -59 -86 0 -105 147 -147 291 -83 64 28 73 29 107
18 20 -7 66 -11 102 -10 175 8 185 7 225 -23 43 -33 95 -134 95 -183 0 -43
-19 -83 -40 -83 -38 0 -54 -54 -24 -84 18 -18 66 -21 94 -6 11 6 31 30 46 55
21 37 26 58 27 122 0 84 -13 137 -50 195 -12 21 -23 44 -23 51 0 8 -9 22 -20
32 -32 29 -36 80 -11 130 11 23 21 51 21 62 0 43 -57 74 -85 47 -8 -8 -38 -22
-67 -31 -113 -33 -315 17 -467 117 -129 85 -204 177 -316 383 -77 141 -156
226 -240 257 -91 34 -176 36 -257 6z"/>
<path d="M2820 2235 c0 -8 7 -15 15 -15 8 0 15 7 15 15 0 8 -7 15 -15 15 -8 0
-15 -7 -15 -15z"/>
<path d="M651 1645 c-16 -22 -18 -31 -9 -56 13 -36 35 -49 87 -49 32 0 44 5
57 25 47 72 -81 148 -135 80z"/>
<path d="M70 1217 c-34 -9 -46 -18 -51 -37 -11 -38 -10 -123 1 -140 8 -13 10
-12 10 3 0 34 38 74 75 81 36 7 105 -8 105 -23 0 -4 29 -31 65 -60 36 -29 65
-57 65 -62 0 -5 -9 -17 -20 -26 -11 -10 -20 -25 -20 -35 0 -34 -41 -59 -90
-56 -43 3 -45 4 -43 32 3 36 -12 56 -42 56 -54 0 -72 -69 -31 -117 39 -47 88
-56 166 -33 65 20 84 30 174 95 45 32 96 47 96 26 0 -5 -34 -41 -76 -81 -85
-81 -156 -119 -238 -127 -60 -6 -152 12 -178 34 -26 23 -33 10 -30 -56 l4 -60
46 -18 c31 -12 75 -18 127 -18 76 0 85 3 179 49 70 35 119 68 166 113 47 44
75 63 93 63 14 0 29 5 32 10 12 19 84 60 105 60 21 0 27 -15 10 -25 -17 -11
-11 -44 10 -55 25 -13 26 -52 2 -73 -24 -22 -34 -21 -50 3 -8 13 -23 20 -42
20 -28 0 -30 -2 -30 -39 0 -70 52 -91 128 -52 72 37 106 100 95 180 -5 33 -1
42 21 62 21 18 25 30 24 66 -2 39 2 48 44 90 45 45 50 47 113 51 80 5 119 -14
109 -53 -8 -31 10 -55 41 -55 33 0 55 31 55 76 0 78 -85 122 -213 110 -115
-11 -241 -72 -270 -132 -17 -34 -48 -44 -145 -44 -100 0 -248 68 -317 146 -25
28 -43 37 -100 49 -82 17 -114 18 -175 2z"/>
<path d="M1590 858 c-26 -28 -25 -43 2 -62 27 -19 19 -30 -69 -91 -144 -101
-237 -136 -307 -116 -32 8 -46 7 -70 -4 -16 -8 -32 -15 -36 -15 -12 0 -30 50
-30 83 0 66 67 131 95 93 7 -9 19 -16 27 -16 21 0 48 32 48 57 0 20 -36 43
-66 43 -28 0 -90 -39 -127 -79 -36 -39 -44 -61 -65 -175 -17 -89 -33 -108 -90
-104 -45 3 -47 2 -50 -25 -4 -37 -25 -44 -168 -58 -123 -13 -217 -4 -275 27
-64 32 -156 5 -302 -91 -105 -69 -98 -55 -95 -190 l3 -120 367 -3 368 -2 40
80 c42 84 78 116 102 92 9 -9 8 -19 -5 -41 -9 -16 -17 -36 -17 -45 0 -17 42
-32 60 -21 35 21 53 144 28 185 -16 26 7 51 74 80 37 16 60 20 88 15 37 -6 42
-4 105 55 49 46 94 74 183 117 171 82 272 157 311 231 14 27 6 79 -17 105 -22
25 -86 23 -112 -5z"/>
<path d="M2178 868 c-38 -13 -43 -37 -13 -65 14 -13 25 -28 25 -34 0 -5 -16
-50 -35 -100 -34 -89 -67 -145 -134 -227 -61 -76 -201 -172 -250 -172 -43 0
-250 -244 -227 -267 3 -3 45 -2 93 3 l86 9 15 43 c21 66 78 85 65 22 -4 -25
-1 -31 18 -39 47 -19 77 59 48 123 -20 43 -5 69 62 106 38 22 84 61 123 105
128 144 186 277 186 425 0 67 -15 84 -62 68z"/>
<path d="M1750 721 c-13 -25 -13 -54 1 -68 19 -19 -19 -79 -79 -125 -33 -25
-109 -64 -182 -94 -164 -67 -231 -105 -303 -176 -32 -32 -63 -58 -68 -58 -12
0 -31 39 -24 50 3 6 14 10 24 10 10 0 26 9 35 19 17 19 17 20 -3 30 -27 15
-80 -6 -109 -44 -28 -36 -29 -90 -2 -107 35 -22 22 -72 -34 -120 l-31 -27 90
-2 c50 0 105 0 124 1 40 2 70 32 71 70 0 44 20 99 47 131 34 40 79 67 178 108
117 48 203 102 261 163 63 66 83 104 91 167 5 41 2 52 -16 70 -26 26 -57 27
-71 2z"/>
</g>
</g>
<g transform="translate(578,0)">
<metadata>
Created by potrace 1.16, written by Peter Selinger 2001-2019
</metadata>
<g transform="translate(0.305706,408.802164) scale(0.100000,-0.100000)"
 stroke="none">
<path d="M2805 4083 c-6 -5 -29 -37 -51 -73 -91 -147 -107 -210 -98 -386 5
-91 3 -147 -6 -183 -19 -82 -90 -150 -90 -87 0 13 -5 26 -12 28 -29 10 -111
-13 -160 -45 -63 -40 -165 -148 -184 -193 -22 -52 7 -104 58 -104 32 0 52 33
37 62 -14 26 -11 35 22 73 56 63 119 82 119 36 0 -11 8 -39 19 -63 27 -65 91
-88 131 -48 42 42 10 99 -39 68 -11 -7 -23 -10 -26 -7 -11 12 7 38 36 49 36
15 73 -5 83 -45 19 -76 -59 -202 -139 -224 -65 -18 -199 -13 -380 15 -93 14
-199 30 -235 35 -107 16 -309 22 -349 10 -20 -5 -82 -21 -138 -35 -164 -39
-348 -143 -514 -289 -106 -93 -159 -167 -279 -392 -62 -116 -106 -188 -145
-233 -42 -48 -113 -88 -165 -94 -31 -3 -35 0 -37 22 -3 51 -23 106 -44 123
-28 23 -81 22 -110 -2 -23 -19 -23 -21 -9 -48 11 -20 24 -28 42 -28 41 0 43
-10 12 -70 -24 -48 -26 -59 -16 -76 13 -20 11 -43 -10 -145 -18 -86 26 -194
78 -194 7 0 22 8 34 18 28 23 21 54 -16 71 -22 10 -25 16 -19 39 14 56 68 92
138 92 49 0 67 -15 86 -69 16 -49 13 -116 -9 -201 -22 -84 -25 -129 -10 -179
20 -70 94 -115 147 -89 33 16 38 51 8 56 -32 6 -45 22 -45 57 0 19 8 39 21 50
18 18 23 18 62 5 35 -13 46 -24 69 -70 17 -33 36 -98 48 -163 27 -151 84 -268
179 -370 53 -57 88 -77 133 -77 38 0 48 6 71 40 24 35 21 74 -9 109 -30 36
-49 39 -66 11 -18 -28 -32 -25 -64 13 -49 57 -84 147 -96 246 -13 107 -5 135
40 144 63 13 84 70 33 88 -38 13 -45 43 -25 109 40 134 82 192 177 242 40 22
54 23 247 24 273 1 308 14 471 176 155 156 235 273 402 588 63 119 87 143 149
144 40 1 44 -2 76 -49 41 -60 81 -84 145 -85 76 0 127 35 127 89 0 42 -72 52
-83 11 -10 -40 -63 -21 -73 26 -12 61 62 114 161 114 40 0 153 -47 187 -77 15
-13 18 -13 23 -2 3 8 4 329 3 714 l-3 700 -55 3 c-30 1 -60 -1 -65 -5z m-969
-1385 c38 -46 74 -131 74 -176 0 -94 -68 -252 -146 -340 -35 -40 -67 -63 -138
-97 -113 -55 -182 -73 -313 -84 -156 -13 -222 8 -306 98 -81 87 -125 212 -106
303 18 85 45 130 100 171 70 50 149 52 149 2 0 -36 27 -91 55 -114 35 -27 91
-44 120 -37 66 17 132 120 119 186 -5 24 -2 31 24 44 17 9 50 16 72 16 34 0
43 -4 47 -21 5 -17 11 -20 36 -15 41 8 67 -16 67 -63 0 -57 -9 -75 -43 -91
-38 -18 -46 -49 -18 -74 17 -15 25 -16 55 -6 40 13 92 67 103 108 14 49 9 145
-9 181 -22 43 -23 41 6 41 15 0 35 -12 52 -32z"/>
<path d="M73 4073 l-73 -4 0 -114 c0 -130 4 -145 35 -145 69 0 185 -158 185
-254 0 -41 3 -47 31 -61 40 -21 69 -86 62 -138 -6 -44 7 -63 48 -72 57 -13
113 -117 124 -233 7 -68 6 -73 -11 -71 -48 8 -59 -38 -18 -76 34 -31 88 -34
104 -6 15 29 12 169 -6 231 -9 30 -25 87 -36 125 -15 51 -21 103 -22 195 l-2
124 -31 8 c-53 14 -120 161 -219 486 -3 12 -10 12 -171 5z"/>
<path d="M795 4072 c-3 -3 -5 -53 -5 -110 0 -58 -5 -121 -12 -139 -12 -33 -11
-35 24 -67 115 -106 161 -382 117 -705 -14 -98 -43 -161 -75 -161 -29 0 -58
-41 -49 -69 16 -51 89 -27 130 44 35 58 81 248 89 366 10 128 32 248 62 326
13 36 24 73 24 83 0 9 -17 28 -37 41 -35 22 -39 30 -50 94 -7 39 -15 119 -19
178 -6 87 -10 110 -24 117 -18 10 -165 11 -175 2z"/>
<path d="M1371 4071 c-83 -5 -106 -9 -115 -23 -13 -21 9 -70 52 -120 40 -44
65 -138 52 -193 -14 -63 -32 -99 -129 -264 -93 -159 -113 -217 -95 -270 5 -14
21 -32 36 -41 26 -14 29 -14 54 11 22 22 24 30 15 47 -8 16 -7 30 8 64 19 45
76 108 97 108 16 0 151 71 197 102 50 35 156 139 188 185 39 55 40 110 4 119
-36 9 -68 -21 -60 -55 7 -34 -43 -98 -68 -88 -25 9 -21 45 8 71 l25 24 -11
148 c-6 82 -15 157 -20 166 -10 19 -24 20 -238 9z"/>
<path d="M2205 4070 c-163 -5 -170 -6 -166 -25 10 -53 3 -92 -22 -128 -22 -32
-25 -46 -21 -80 8 -57 -34 -184 -86 -264 -69 -105 -175 -210 -249 -247 -36
-18 -84 -36 -106 -40 -99 -17 -186 -49 -210 -78 -30 -36 -32 -64 -4 -78 29
-16 63 -8 74 17 12 29 15 30 137 43 236 24 339 57 438 141 47 39 56 43 145 55
163 23 306 106 350 204 23 51 12 90 -27 104 -48 17 -91 -47 -55 -83 29 -30
-147 -144 -196 -126 -47 19 -18 86 45 106 40 13 43 17 43 49 0 25 13 55 42
100 57 89 86 157 86 205 0 52 -20 122 -36 126 -6 2 -88 2 -182 -1z"/>
<path d="M16 3412 c-3 -5 -9 -115 -12 -244 l-7 -234 32 -13 c65 -28 108 -120
94 -205 -5 -35 -5 -36 26 -36 24 0 35 -7 50 -30 24 -41 43 -151 39 -230 -3
-59 -5 -65 -28 -70 -31 -7 -38 -41 -16 -76 23 -35 83 -34 117 2 22 24 24 33
23 127 -1 74 -10 136 -30 222 -24 98 -29 142 -29 242 0 88 -4 126 -13 135 -11
11 -16 9 -28 -7 -15 -20 -16 -19 -39 10 -28 34 -116 253 -136 335 -13 57 -32
89 -43 72z"/>
<path d="M104 2559 c-3 -6 -1 -16 5 -22 17 -17 13 -62 -8 -88 l-19 -24 -24 23
c-44 41 -50 31 -46 -79 1 -55 7 -103 11 -106 13 -8 66 46 87 88 53 103 72 183
48 207 -15 15 -45 16 -54 1z"/>
<path d="M2558 2386 c-106 -38 -177 -110 -263 -271 -102 -190 -178 -286 -283
-357 -194 -131 -411 -179 -536 -119 -48 24 -77 26 -94 9 -17 -17 -15 -79 3
-102 22 -29 19 -98 -5 -129 -11 -14 -37 -61 -58 -104 -63 -134 -55 -275 19
-338 18 -14 43 -25 60 -25 28 0 69 30 69 51 0 22 -21 49 -39 49 -75 0 -53 160
33 247 50 49 107 63 191 44 42 -10 66 -9 125 3 72 15 73 15 129 -11 67 -33
158 -41 216 -20 43 15 85 65 85 101 0 37 -37 86 -65 86 -29 0 -59 -39 -49 -64
10 -26 -58 -51 -93 -34 -70 35 -58 92 45 202 15 16 56 43 92 59 166 75 287
138 308 160 12 13 33 44 45 68 27 54 65 71 105 48 36 -19 40 -54 11 -85 -28
-30 -17 -57 25 -62 56 -7 95 69 79 151 -7 33 -16 47 -46 66 -93 61 0 165 129
145 33 -5 59 -18 90 -45 25 -22 47 -39 50 -39 3 0 4 57 3 126 -2 144 3 135
-110 180 -94 37 -186 41 -271 10z"/>
<path d="M87 2253 c-24 -23 12 -55 38 -33 12 10 13 16 4 26 -12 15 -31 18 -42
7z"/>
<path d="M2176 1649 c-17 -13 -26 -30 -26 -49 0 -41 24 -60 75 -60 35 0 48 5
64 26 27 34 27 58 -1 84 -28 26 -78 26 -112 -1z"/>
<path d="M2695 1216 c-43 -10 -67 -22 -86 -44 -70 -78 -230 -152 -328 -152
-90 0 -122 10 -142 45 -61 103 -316 169 -429 110 -60 -31 -80 -105 -40 -145
42 -42 94 -15 83 42 -4 23 -1 29 22 38 33 12 106 13 137 1 13 -5 42 -27 66
-49 39 -36 42 -43 40 -87 -1 -40 3 -50 23 -66 21 -16 24 -26 24 -86 0 -78 13
-102 76 -145 79 -53 156 -27 147 49 -4 37 -41 43 -73 13 -19 -18 -27 -20 -44
-11 -35 19 -40 81 -6 81 17 0 28 31 15 44 -15 15 -12 36 5 36 22 0 76 -29 98
-51 10 -11 30 -19 46 -19 19 0 34 -9 50 -31 31 -42 127 -111 219 -156 72 -35
82 -38 167 -37 67 0 100 5 130 20 40 19 40 20 43 82 3 57 -7 78 -23 53 -9 -15
-109 -41 -157 -41 -63 0 -153 33 -207 77 -52 41 -131 123 -131 135 0 23 56 2
118 -45 49 -37 92 -60 144 -76 l73 -23 48 21 c36 16 51 29 62 55 18 43 4 83
-32 92 -37 10 -51 -2 -55 -43 -3 -36 -5 -38 -41 -41 -48 -4 -87 19 -87 53 0
14 -8 29 -20 35 -27 15 -25 44 5 64 13 9 47 36 74 60 27 24 59 47 71 51 53 17
130 -23 130 -67 0 -10 5 -18 10 -18 6 0 10 33 10 78 0 76 -1 79 -27 91 -40 19
-141 22 -208 7z"/>
<path d="M715 863 c-15 -14 -17 -29 -12 -93 4 -41 15 -101 26 -133 48 -140
180 -308 286 -367 67 -37 78 -61 58 -124 -14 -43 -15 -52 -2 -75 17 -30 50
-38 69 -16 10 12 10 18 0 30 -17 21 1 39 29 30 13 -4 27 -24 38 -54 l17 -48
65 -7 c129 -12 130 -10 76 65 -19 27 -35 53 -35 58 0 5 -27 36 -60 70 -47 47
-72 63 -114 75 -136 40 -293 207 -365 389 -36 91 -39 122 -11 137 22 12 26 42
8 58 -27 21 -56 23 -73 5z"/>
<path d="M1240 865 c-6 -8 -14 -32 -17 -53 -6 -48 13 -89 62 -128 19 -16 50
-41 68 -55 17 -15 95 -57 172 -95 111 -55 152 -81 199 -127 58 -57 61 -58 102
-52 32 4 53 1 86 -15 78 -38 83 -44 68 -89 -25 -77 14 -186 64 -179 27 4 33
40 12 70 -11 16 -13 25 -4 35 26 31 55 6 108 -96 l35 -66 369 0 369 0 -1 120
-1 120 -38 33 c-21 17 -86 57 -145 87 -114 59 -159 67 -211 40 -57 -29 -151
-38 -278 -26 -138 13 -167 23 -171 60 -3 24 -6 26 -45 23 -57 -3 -76 24 -97
133 -8 46 -22 97 -30 112 -34 65 -123 120 -176 108 -41 -9 -56 -30 -42 -59 15
-33 48 -42 72 -21 21 19 49 9 74 -27 19 -27 20 -106 2 -130 -12 -17 -16 -17
-44 -2 -25 12 -39 13 -73 4 -72 -20 -145 7 -297 108 -90 59 -105 78 -79 97 22
16 22 48 -1 68 -23 21 -95 22 -112 2z"/>
<path d="M1125 720 c-27 -30 -16 -129 21 -178 72 -98 160 -160 321 -227 51
-21 111 -51 133 -68 48 -35 80 -92 80 -143 0 -20 9 -48 21 -65 l20 -29 120 0
c65 0 119 4 119 9 0 5 -12 16 -26 26 -14 9 -32 33 -41 52 -14 35 -14 37 11 60
30 28 31 38 11 87 -19 45 -86 81 -118 65 -25 -14 -17 -32 21 -44 35 -10 42
-34 17 -55 -12 -10 -27 -1 -88 56 -74 69 -170 125 -280 164 -100 35 -143 58
-204 108 -64 54 -87 99 -63 127 13 15 5 55 -14 67 -19 13 -42 9 -61 -12z"/>
</g>
</g>
</g>
</svg>