<?xml version="1.0" standalone="no"?>
<!DOCTYPE svg PUBLIC "-//W3C//DTD SVG 20010904//EN"
 "http://www.w3.org/TR/2001/REC-SVG-20010904/DTD/svg10.dtd">
<svg version="1.0" xmlns="http://www.w3.org/2000/svg"
 width="291.047456pt" height="402.000000pt" viewBox="0 0 291.047456 402.000000"
 preserveAspectRatio="xMidYMid meet">
<metadata>
Created by potrace 1.16, written by Peter Selinger 2001-2019
</metadata>
<g transform="translate(0.000000,402.000000) scale(0.100000,-0.100000)"
fill="#e8e4d8" fill-opacity="0.09" stroke="none">
<path d="M253 4006 c3 -8 11 -34 17 -58 21 -75 102 -280 134 -335 23 -40 38
-56 61 -62 l30 -7 -3 -85 c-4 -92 13 -197 53 -328 27 -89 34 -225 15 -262 -16
-28 -70 -25 -104 6 -41 38 -30 84 18 76 17 -2 18 3 11 71 -11 116 -67 220
-124 233 -41 9 -49 22 -49 82 -1 63 -22 107 -62 128 -26 14 -30 21 -30 59 0
94 -97 233 -176 252 -16 4 -32 12 -36 18 -4 6 -7 -126 -6 -294 1 -168 3 -267
5 -220 2 47 6 91 8 99 10 26 31 -7 44 -66 18 -81 106 -302 135 -338 24 -29 25
-30 40 -10 12 16 17 18 28 7 9 -9 13 -47 13 -135 0 -100 5 -144 29 -242 20
-86 29 -148 30 -222 1 -94 -1 -103 -23 -127 -34 -36 -94 -37 -117 -2 -22 35
-15 69 16 76 23 5 25 11 28 70 5 82 -13 187 -38 228 -15 24 -27 32 -49 32 -28
0 -28 0 -28 63 1 76 -24 132 -72 164 -19 13 -38 23 -42 23 -5 0 -9 -652 -9
-1450 l0 -1450 610 0 610 0 -15 37 c-16 38 -30 53 -52 53 -19 0 -26 -20 -13
-35 10 -12 10 -18 0 -30 -19 -23 -52 -14 -70 17 -13 25 -13 32 3 78 22 63 15
78 -56 118 -115 65 -237 221 -289 372 -10 30 -21 89 -25 130 -5 64 -3 79 12
93 17 18 46 16 73 -5 18 -16 14 -46 -8 -58 -11 -6 -20 -21 -20 -35 0 -26 53
-165 78 -205 49 -77 118 -157 174 -201 73 -59 97 -73 155 -88 30 -8 60 -29
102 -72 34 -33 61 -65 61 -70 0 -4 14 -29 32 -54 l32 -45 154 0 c143 0 154 1
147 17 -4 10 -11 38 -15 63 -15 106 -49 136 -250 221 -126 53 -218 122 -285
211 -38 52 -48 154 -17 182 43 38 101 -13 71 -62 -20 -33 -2 -69 63 -123 63
-52 100 -71 222 -116 107 -39 193 -91 268 -161 57 -54 70 -62 83 -52 21 18 19
50 -3 50 -10 0 -27 7 -38 15 -18 14 -18 15 -1 29 15 11 26 12 50 4 44 -15 56
-26 73 -66 19 -47 18 -58 -12 -85 -25 -23 -25 -25 -11 -59 25 -60 47 -68 174
-68 62 0 113 2 113 5 0 14 -54 112 -73 133 -23 25 -40 28 -55 9 -9 -10 -7 -19
4 -35 21 -30 15 -66 -12 -70 -50 -7 -89 102 -64 179 15 45 10 51 -68 89 -34
16 -54 19 -87 14 -43 -6 -45 -5 -91 45 -38 42 -76 66 -198 128 -83 42 -166 88
-183 102 -18 14 -49 39 -68 55 -49 39 -68 80 -62 128 3 21 11 45 17 53 18 22
93 19 113 -3 21 -23 22 -58 2 -66 -22 -8 -18 -31 8 -50 190 -138 284 -178 366
-156 34 9 48 8 73 -4 28 -15 32 -15 44 2 18 24 17 103 -2 130 -25 36 -53 46
-74 27 -24 -21 -57 -12 -72 21 -14 29 1 50 42 59 53 12 142 -43 176 -108 8
-15 22 -66 31 -113 10 -58 23 -94 38 -112 21 -24 26 -26 53 -16 35 13 52 3 52
-31 0 -31 34 -43 162 -56 125 -12 199 -6 271 22 26 10 63 19 83 19 37 0 201
-78 264 -125 l35 -26 3 167 c1 92 1 168 0 170 -2 1 -28 -4 -58 -12 -75 -21
-160 -13 -235 22 -87 40 -190 110 -228 155 -23 26 -42 39 -59 39 -14 0 -31 7
-39 16 -16 19 -83 54 -104 54 -17 0 -20 -21 -5 -36 13 -13 2 -44 -15 -44 -34
0 -29 -62 6 -81 17 -9 25 -7 44 11 32 30 69 24 73 -13 9 -76 -68 -102 -147
-49 -63 43 -76 66 -76 146 0 60 -3 70 -22 84 -19 12 -23 24 -23 65 0 46 -3 53
-42 90 -24 21 -53 43 -66 48 -31 12 -104 11 -137 -1 -23 -9 -26 -15 -22 -38
11 -57 -41 -84 -83 -42 -49 49 -8 136 76 159 125 35 339 -32 393 -124 14 -24
28 -34 57 -38 142 -24 283 24 400 136 34 32 55 42 110 54 63 13 151 11 191 -4
11 -4 13 71 13 435 l0 440 -34 30 c-84 74 -246 36 -246 -58 0 -20 9 -33 37
-51 30 -19 39 -33 46 -66 16 -82 -23 -158 -79 -151 -43 5 -53 32 -24 63 20 21
22 30 14 52 -5 16 -21 32 -36 37 -41 14 -76 -6 -99 -58 -31 -72 -69 -96 -349
-223 -115 -52 -207 -177 -173 -232 5 -9 22 -22 36 -29 22 -10 32 -10 62 2 30
13 35 19 30 37 -9 26 20 59 52 59 26 0 63 -50 63 -86 0 -36 -42 -86 -85 -101
-58 -21 -149 -13 -216 20 -56 26 -57 26 -129 11 -59 -12 -83 -13 -125 -3 -84
19 -141 5 -191 -44 -86 -87 -108 -247 -33 -247 18 0 39 -27 39 -49 0 -21 -41
-51 -69 -51 -74 0 -126 92 -120 212 4 62 11 86 47 158 23 47 49 96 57 110 19
32 19 91 0 116 -18 23 -20 85 -3 102 17 17 46 15 94 -9 125 -60 342 -12 536
119 105 71 181 167 283 357 55 102 130 200 177 232 18 12 64 31 102 44 87 27
162 22 264 -19 l72 -30 -2 166 -3 167 -75 38 c-69 35 -80 38 -136 34 -100 -7
-155 -56 -138 -121 10 -40 74 -50 74 -11 0 19 35 28 60 15 22 -12 26 -40 10
-71 -25 -46 -123 -64 -191 -35 -21 9 -47 34 -69 68 -34 51 -38 53 -79 52 -61
-1 -86 -25 -148 -144 -163 -309 -248 -434 -402 -588 -163 -162 -198 -175 -471
-176 -193 -1 -207 -2 -247 -24 -95 -50 -137 -108 -177 -242 -20 -66 -13 -96
25 -109 51 -18 30 -75 -33 -88 -45 -9 -53 -37 -40 -144 12 -99 47 -189 96
-246 32 -38 46 -41 64 -13 17 28 36 25 66 -11 30 -35 33 -74 9 -109 -23 -34
-33 -40 -71 -40 -45 0 -80 20 -133 77 -95 102 -152 219 -179 370 -23 126 -59
207 -100 228 -58 30 -100 9 -100 -49 0 -36 13 -52 45 -58 30 -5 25 -40 -8 -56
-53 -26 -127 19 -147 89 -15 50 -12 95 10 179 22 85 25 152 9 201 -19 54 -37
69 -86 69 -70 0 -124 -36 -138 -92 -6 -23 -3 -29 19 -39 37 -17 44 -48 16 -71
-12 -10 -27 -18 -34 -18 -52 0 -96 108 -78 194 21 102 23 125 10 145 -10 17
-8 28 16 76 31 60 29 70 -12 70 -18 0 -31 8 -42 28 -14 27 -14 29 9 48 29 24
82 25 110 2 21 -17 40 -68 45 -123 3 -22 7 -25 37 -22 49 5 120 45 161 90 36
40 83 115 148 237 47 88 130 228 165 278 34 48 179 175 271 238 242 163 551
242 783 199 304 -57 590 -82 671 -60 61 17 114 73 134 144 19 65 13 101 -21
123 -22 15 -27 15 -59 0 -19 -9 -34 -23 -34 -32 0 -18 21 -20 37 -4 6 6 20 8
32 4 43 -13 10 -95 -38 -95 -44 0 -72 20 -91 66 -11 25 -20 54 -20 65 0 46
-63 27 -119 -36 -33 -38 -36 -47 -22 -73 5 -10 5 -27 0 -40 -12 -32 -65 -27
-92 9 -28 39 -10 82 69 167 78 85 146 130 211 141 61 9 73 5 73 -25 0 -63 71
5 90 87 9 36 11 92 6 183 -9 172 9 243 91 374 l33 52 -186 0 -186 0 8 -42 c15
-93 4 -134 -74 -258 -33 -52 -47 -86 -47 -110 0 -32 -3 -36 -43 -49 -63 -20
-92 -87 -45 -106 49 -18 225 96 196 126 -36 36 7 100 55 83 39 -14 50 -53 27
-104 -44 -97 -188 -181 -349 -204 -90 -12 -99 -16 -146 -55 -98 -82 -209 -119
-427 -140 -132 -13 -135 -14 -148 -44 -11 -25 -45 -33 -74 -17 -28 14 -26 42
4 78 24 29 112 62 210 78 155 26 358 233 421 429 18 56 24 92 20 122 -4 33 -1
48 20 78 31 46 40 86 25 114 -11 20 -18 21 -216 21 -157 0 -205 -3 -205 -12 0
-7 5 -75 10 -152 l10 -139 -25 -23 c-29 -26 -33 -62 -8 -71 25 -10 75 54 68
88 -8 34 24 64 60 55 21 -5 25 -12 25 -42 0 -20 -9 -50 -22 -67 -35 -53 -140
-157 -193 -192 -63 -42 -183 -105 -199 -105 -21 0 -78 -63 -97 -108 -15 -34
-16 -48 -8 -64 9 -16 6 -24 -12 -44 -28 -30 -44 -30 -74 1 -50 49 -33 112 88
317 47 79 95 172 107 207 21 63 21 66 5 132 -9 38 -24 74 -33 81 -24 20 -72
100 -72 120 0 16 -11 18 -132 18 l-131 0 7 -102 c4 -57 12 -134 19 -173 11
-64 15 -72 50 -94 20 -13 37 -32 37 -41 0 -10 -11 -47 -24 -83 -29 -76 -52
-197 -61 -322 -12 -149 -52 -310 -96 -382 -38 -61 -109 -79 -124 -32 -9 28 20
69 49 69 43 0 69 81 87 275 24 257 -29 499 -129 591 -35 32 -36 34 -24 67 7
18 12 77 12 130 l0 97 -271 0 c-232 0 -270 -2 -266 -14z m-95 -1478 c24 -24 5
-104 -48 -207 -21 -41 -77 -98 -86 -88 -4 4 -9 52 -12 107 -5 110 1 120 46 78
l24 -23 19 24 c21 26 25 71 8 88 -6 6 -8 16 -5 22 9 15 39 14 54 -1z m-31
-309 c16 -16 5 -39 -17 -39 -23 0 -34 16 -26 35 6 18 28 19 43 4z m2161 -599
c28 -26 28 -50 1 -84 -16 -21 -29 -26 -64 -26 -50 0 -75 19 -75 58 0 63 90 97
138 52z"/>
<path d="M1766 2701 c-3 -5 2 -23 11 -42 53 -106 5 -257 -93 -289 -30 -10 -38
-9 -55 6 -27 24 -20 55 16 74 41 20 45 28 45 81 0 57 -22 82 -67 73 -25 -5
-31 -2 -36 15 -4 17 -13 21 -46 21 -67 0 -117 -36 -96 -70 13 -21 -26 -109
-61 -139 -43 -38 -73 -46 -118 -31 -68 22 -116 83 -116 145 0 50 -79 48 -149
-2 -55 -41 -82 -86 -100 -171 -28 -132 74 -319 209 -380 47 -22 67 -25 147
-24 164 4 317 46 436 122 107 68 216 271 217 404 0 87 -116 253 -144 207z"/>
<path d="M2752 1078 c-138 -102 -164 -136 -122 -158 12 -6 20 -21 20 -35 0
-34 39 -57 87 -53 36 3 38 5 41 41 4 41 18 53 55 43 36 -9 50 -49 32 -92 -11
-26 -26 -40 -61 -56 l-47 -20 -75 23 c-51 16 -95 39 -144 76 -63 48 -118 68
-118 44 0 -5 24 -34 54 -64 130 -132 245 -171 382 -131 l54 15 0 167 c-1 180
-4 193 -54 212 -42 15 -70 12 -104 -12z"/>
</g>
</svg>
