<svg xmlns="http://www.w3.org/2000/svg" viewBox="0 0 291 402" fill="#0e130f">
<g>
<metadata>
Created by potrace 1.16, written by Peter Selinger 2001-2019
</metadata>
<g transform="translate(0.305706,402.000000) scale(0.100000,-0.100000)"
 stroke="none">
<path d="M0 3913 c0 -60 4 -113 8 -119 4 -6 20 -14 36 -18 79 -19 176 -158
176 -252 0 -38 4 -45 30 -59 40 -21 61 -65 62 -128 0 -60 8 -73 49 -82 57 -13
113 -117 124 -233 7 -68 6 -73 -11 -71 -48 8 -59 -38 -18 -76 34 -31 88 -34
104 -6 19 37 12 173 -15 262 -40 131 -57 236 -53 328 l3 85 -30 7 c-23 6 -38
22 -61 62 -33 57 -111 255 -138 350 l-17 57 -124 0 -125 0 0 -107z"/>
<path d="M790 3923 c0 -53 -5 -112 -12 -130 -12 -33 -11 -35 24 -67 100 -92
153 -334 129 -591 -18 -194 -44 -275 -87 -275 -29 0 -58 -41 -49 -69 15 -47
86 -29 124 32 44 72 84 233 96 382 9 125 32 246 61 322 13 36 24 73 24 83 0 9
-17 28 -37 41 -35 22 -39 30 -50 94 -7 39 -15 116 -19 173 l-7 102 -99 0 -98
0 0 -97z"/>
<path d="M1250 4002 c0 -20 48 -100 72 -120 9 -7 24 -43 33 -81 16 -66 16 -69
-5 -132 -12 -35 -60 -128 -107 -207 -121 -205 -138 -268 -88 -317 30 -31 46
-31 74 -1 18 20 21 28 12 44 -8 16 -7 30 8 64 19 45 76 108 97 108 16 0 136
63 199 105 53 35 158 139 193 192 13 17 22 47 22 67 0 30 -4 37 -25 42 -36 9
-68 -21 -60 -55 7 -34 -43 -98 -68 -88 -25 9 -21 45 8 71 l25 23 -10 139 c-5
77 -10 145 -10 152 0 9 -44 12 -185 12 -172 0 -185 -1 -185 -18z"/>
<path d="M2041 3999 c15 -28 6 -68 -25 -114 -21 -30 -24 -45 -20 -78 8 -57
-34 -184 -86 -264 -68 -104 -171 -206 -247 -245 -37 -20 -86 -39 -108 -42 -98
-16 -186 -49 -210 -78 -30 -36 -32 -64 -4 -78 29 -16 63 -8 74 17 13 30 16 31
148 44 218 21 329 58 427 140 47 39 56 43 146 55 161 23 305 107 349 204 23
51 12 90 -27 104 -48 17 -91 -47 -55 -83 29 -30 -147 -144 -196 -126 -47 19
-18 86 45 106 40 13 43 17 43 49 0 24 14 58 47 110 78 124 89 165 74 258 l-8
42 -189 0 -190 0 12 -21z"/>
<path d="M2747 3968 c-82 -131 -100 -202 -91 -374 5 -91 3 -147 -6 -183 -19
-82 -90 -150 -90 -87 0 30 -12 34 -73 25 -65 -11 -133 -56 -211 -141 -79 -85
-97 -128 -69 -167 27 -36 80 -41 92 -9 5 13 5 30 0 40 -14 26 -11 35 22 73 56
63 119 82 119 36 0 -11 9 -40 20 -65 19 -46 47 -66 91 -66 48 0 81 82 38 95
-12 4 -26 2 -32 -4 -16 -16 -37 -14 -37 4 0 9 15 23 34 32 32 15 37 15 59 0
34 -22 40 -58 21 -123 -20 -71 -73 -127 -134 -144 -81 -22 -367 3 -671 60
-232 43 -541 -36 -783 -199 -92 -63 -237 -190 -271 -238 -35 -50 -118 -190
-165 -278 -65 -122 -112 -197 -148 -237 -41 -45 -112 -85 -161 -90 -30 -3 -34
0 -37 22 -5 55 -24 106 -45 123 -28 23 -81 22 -110 -2 -23 -19 -23 -21 -9 -48
11 -20 24 -28 42 -28 41 0 43 -10 12 -70 -24 -48 -26 -59 -16 -76 13 -20 11
-43 -10 -145 -18 -86 26 -194 78 -194 7 0 22 8 34 18 28 23 21 54 -16 71 -22
10 -25 16 -19 39 14 56 68 92 138 92 49 0 67 -15 86 -69 16 -49 13 -116 -9
-201 -22 -84 -25 -129 -10 -179 20 -70 94 -115 147 -89 33 16 38 51 8 56 -32
6 -45 22 -45 58 0 58 42 79 100 49 41 -21 77 -102 100 -228 27 -151 84 -268
179 -370 53 -57 88 -77 133 -77 38 0 48 6 71 40 24 35 21 74 -9 109 -30 36
-49 39 -66 11 -18 -28 -32 -25 -64 13 -49 57 -84 147 -96 246 -13 107 -5 135
40 144 63 13 84 70 33 88 -38 13 -45 43 -25 109 40 134 82 192 177 242 40 22
54 23 247 24 273 1 308 14 471 176 154 154 239 279 402 588 62 119 87 143 148
144 41 1 45 -1 79 -52 22 -34 48 -59 69 -68 68 -29 166 -11 191 35 16 31 12
59 -10 71 -25 13 -60 4 -60 -15 0 -39 -64 -29 -74 11 -17 65 38 114 138 121
56 5 67 2 139 -34 l77 -39 0 688 0 688 -65 0 -65 0 -33 -52z m-928 -1284 c40
-33 91 -141 91 -190 -1 -133 -110 -336 -217 -404 -119 -76 -272 -118 -436
-122 -80 -1 -100 2 -147 24 -98 45 -178 152 -209 280 -23 95 21 212 100 271
70 50 149 52 149 2 0 -62 48 -123 116 -145 45 -15 75 -7 118 31 35 30 74 118
61 139 -21 34 29 70 96 70 33 0 42 -4 46 -21 5 -17 11 -20 36 -15 45 9 67 -16
67 -73 0 -53 -4 -61 -45 -81 -36 -19 -43 -50 -16 -74 17 -15 25 -16 55 -6 98
32 146 183 93 289 -27 55 -7 67 42 25z"/>
<path d="M16 3382 c-3 -5 -9 -115 -12 -244 l-7 -234 32 -13 c65 -28 108 -120
94 -205 -5 -35 -5 -36 26 -36 24 0 35 -7 51 -32 25 -41 43 -146 38 -228 -3
-59 -5 -65 -28 -70 -31 -7 -38 -41 -16 -76 23 -35 83 -34 117 2 22 24 24 33
23 127 -1 74 -10 136 -30 222 -24 98 -29 142 -29 242 0 88 -4 126 -13 135 -11
11 -16 9 -28 -7 -15 -20 -16 -19 -40 10 -29 36 -117 257 -135 338 -12 56 -31
87 -43 69z"/>
<path d="M104 2529 c-3 -6 -1 -16 5 -22 17 -17 13 -62 -8 -88 l-19 -24 -24 23
c-45 42 -51 32 -46 -78 3 -55 8 -103 12 -107 9 -10 65 47 86 88 53 103 72 183
48 207 -15 15 -45 16 -54 1z"/>
<path d="M2558 2356 c-37 -13 -79 -33 -95 -46 -49 -38 -112 -122 -165 -220
-105 -195 -181 -291 -286 -362 -194 -131 -411 -179 -536 -119 -48 24 -77 26
-94 9 -17 -17 -15 -79 3 -102 19 -25 19 -84 0 -116 -8 -14 -34 -63 -57 -110
-36 -72 -43 -96 -47 -158 -6 -120 46 -212 120 -212 28 0 69 30 69 51 0 22 -21
49 -39 49 -75 0 -53 160 33 247 50 49 107 63 191 44 42 -10 66 -9 125 3 72 15
73 15 129 -11 67 -33 158 -41 216 -20 43 15 85 65 85 101 0 36 -37 86 -63 86
-32 0 -61 -33 -52 -59 5 -18 0 -24 -30 -37 -30 -12 -40 -12 -62 -2 -70 35 -58
92 45 202 15 16 56 43 92 59 280 127 318 151 349 223 23 52 58 72 99 58 15 -5
31 -21 36 -37 8 -22 6 -31 -14 -52 -29 -31 -19 -58 24 -63 56 -7 95 69 79 151
-7 33 -16 47 -46 66 -28 18 -37 31 -37 51 0 94 162 132 246 57 l35 -30 -3 129
-3 129 -70 28 c-99 40 -189 45 -277 13z"/>
<path d="M84 2215 c-8 -19 3 -35 26 -35 22 0 33 23 17 39 -15 15 -37 14 -43
-4z"/>
<path d="M2172 1617 c-26 -27 -29 -69 -6 -91 9 -10 33 -16 59 -16 35 0 48 5
64 26 27 34 27 58 -1 84 -31 28 -88 27 -116 -3z"/>
<path d="M2697 1186 c-44 -10 -69 -23 -100 -53 -118 -112 -259 -160 -401 -136
-29 4 -43 14 -57 38 -54 92 -268 159 -393 124 -84 -23 -125 -110 -76 -159 42
-42 94 -15 83 42 -4 23 -1 29 22 38 33 12 106 13 137 1 13 -5 42 -27 66 -48
39 -37 42 -44 42 -90 0 -41 4 -53 23 -66 19 -13 22 -23 22 -83 0 -80 13 -103
76 -146 79 -53 156 -27 147 49 -4 37 -41 43 -73 13 -19 -18 -27 -20 -44 -11
-35 19 -40 81 -6 81 17 0 28 31 15 44 -15 15 -12 36 5 36 21 0 88 -35 104 -54
8 -9 25 -16 39 -16 17 0 36 -13 59 -39 40 -47 144 -117 233 -157 53 -24 78
-29 140 -29 41 0 92 6 113 14 l37 13 0 59 0 59 -27 -6 c-16 -4 -38 -11 -51
-15 -65 -24 -181 0 -260 54 -48 32 -152 134 -152 148 0 24 55 4 118 -44 49
-37 93 -60 144 -76 l75 -23 47 20 c35 16 50 30 61 56 18 43 4 83 -32 92 -37
10 -51 -2 -55 -43 -3 -36 -5 -38 -41 -41 -48 -4 -87 19 -87 53 0 14 -8 29 -20
35 -27 15 -25 44 5 64 13 9 47 36 74 60 27 24 59 47 71 51 33 10 88 -3 110
-27 l20 -22 0 66 c0 50 -4 67 -15 72 -35 13 -144 14 -198 2z"/>
<path d="M715 833 c-15 -14 -17 -29 -12 -93 4 -41 15 -100 25 -130 52 -151
174 -307 289 -372 71 -40 78 -55 56 -118 -16 -46 -16 -53 -3 -78 18 -31 51
-40 70 -17 10 12 10 18 0 30 -9 11 -10 19 -3 26 19 19 51 -1 67 -41 l16 -40
86 0 c92 0 91 -2 48 57 -13 17 -24 36 -24 42 0 5 -27 37 -61 70 -42 43 -72 64
-102 72 -58 15 -82 29 -155 88 -56 44 -125 124 -174 201 -25 40 -78 179 -78
205 0 14 9 29 20 35 22 12 26 42 8 58 -27 21 -56 23 -73 5z"/>
<path d="M1240 835 c-6 -8 -14 -32 -17 -53 -6 -48 13 -89 62 -128 19 -16 50
-41 68 -55 17 -14 100 -60 183 -102 122 -62 160 -86 198 -128 46 -50 48 -51
91 -45 33 5 53 2 87 -14 78 -38 83 -44 68 -89 -25 -77 14 -186 64 -179 27 4
33 40 12 70 -16 23 -6 48 19 48 19 0 56 -48 84 -108 l24 -52 364 0 363 0 0
123 0 124 -42 30 c-73 52 -225 123 -262 123 -20 0 -57 -9 -83 -19 -72 -28
-146 -34 -271 -22 -128 13 -162 25 -162 56 0 34 -17 44 -52 31 -27 -10 -32 -8
-53 16 -15 18 -28 54 -38 112 -9 47 -23 98 -31 113 -34 65 -123 120 -176 108
-41 -9 -56 -30 -42 -59 15 -33 48 -42 72 -21 21 19 49 9 74 -27 19 -27 20
-106 2 -130 -12 -17 -16 -17 -44 -2 -25 12 -39 13 -73 4 -82 -22 -176 18 -366
156 -26 19 -30 42 -8 50 21 8 19 47 -3 67 -23 21 -95 22 -112 2z"/>
<path d="M1125 690 c-27 -30 -16 -129 21 -178 66 -89 159 -158 284 -211 165
-70 201 -94 230 -151 11 -22 20 -53 20 -69 0 -17 5 -42 12 -56 11 -25 12 -25
137 -25 119 0 124 1 102 16 -13 9 -30 32 -38 52 -14 34 -14 36 11 59 30 27 31
38 12 85 -17 40 -29 51 -73 66 -24 8 -35 7 -50 -4 -17 -14 -17 -15 1 -29 11
-8 28 -15 38 -15 22 0 24 -32 3 -50 -13 -10 -26 -2 -83 52 -75 71 -162 123
-271 162 -120 43 -174 73 -234 129 -42 38 -57 60 -57 79 0 15 5 30 11 34 13 7
3 56 -14 66 -21 13 -43 9 -62 -12z"/>
</g>
</g>
</svg>