<?xml version="1.0" standalone="no"?>
<!DOCTYPE svg PUBLIC "-//W3C//DTD SVG 20010904//EN"
 "http://www.w3.org/TR/2001/REC-SVG-20010904/DTD/svg10.dtd">
<svg version="1.0" xmlns="http://www.w3.org/2000/svg"
 width="866.047456pt" height="402.000000pt" viewBox="0 0 866.047456 402.000000"
 preserveAspectRatio="xMidYMid meet">
<metadata>
Created by potrace 1.16, written by Peter Selinger 2001-2019
</metadata>
<g transform="translate(0.000000,402.000000) scale(0.100000,-0.100000)"
fill="#e8e4d8" fill-opacity="0.09" stroke="none">
<path d="M199 3908 l56 -112 1 -187 c0 -192 5 -222 46 -281 22 -32 48 -37 48
-9 0 32 21 40 74 30 71 -13 121 -47 208 -137 55 -58 79 -90 83 -115 8 -43 -7
-75 -40 -83 -51 -13 -78 19 -54 63 13 24 11 27 -44 80 -75 72 -90 69 -118 -25
-14 -47 -49 -82 -83 -82 -36 0 -66 28 -66 61 0 36 22 47 56 29 31 -17 39 -8
17 18 -27 32 -67 38 -92 13 -64 -64 19 -232 129 -261 49 -14 242 -8 340 9 30
5 107 17 170 26 63 9 134 20 158 26 80 17 232 11 350 -16 236 -52 426 -155
612 -332 75 -71 104 -108 163 -207 39 -67 87 -150 105 -186 57 -109 139 -225
181 -254 32 -23 116 -56 140 -56 4 0 12 28 18 63 18 94 80 134 141 91 42 -29
15 -90 -34 -78 -20 5 -24 3 -24 -17 0 -13 11 -41 23 -62 21 -34 22 -44 13 -78
-7 -28 -7 -55 2 -97 17 -83 15 -126 -9 -176 -22 -49 -38 -59 -75 -50 -38 10
-44 52 -11 79 34 26 34 54 2 89 -47 50 -138 63 -174 25 -42 -45 -47 -139 -15
-253 21 -75 18 -172 -6 -212 -42 -67 -160 -81 -160 -19 0 20 5 25 25 25 45 0
60 65 24 101 -16 16 -28 20 -52 15 -67 -14 -97 -67 -131 -239 -27 -134 -52
-193 -128 -307 -86 -127 -197 -178 -247 -114 -30 38 -28 98 4 129 29 30 40 31
62 5 10 -11 23 -20 30 -20 21 0 92 119 114 190 24 81 24 208 -1 220 -71 33
-75 36 -78 68 -3 26 0 32 16 32 53 0 53 70 0 196 -25 61 -41 83 -77 111 -86
66 -95 67 -321 68 l-205 0 -77 37 c-60 29 -99 57 -172 128 -154 149 -244 278
-401 575 -79 149 -75 143 -122 161 -58 22 -87 13 -115 -38 -37 -65 -68 -83
-148 -83 -58 0 -72 4 -93 23 -34 32 -40 59 -16 83 25 25 35 24 63 -6 39 -42
76 -27 76 31 0 93 -130 132 -256 76 -111 -50 -105 -36 -102 -220 l3 -160 75
31 c63 26 88 31 155 31 165 -1 268 -75 374 -270 120 -220 193 -310 322 -394
187 -123 429 -164 527 -89 37 29 92 3 92 -44 0 -11 -10 -39 -21 -62 -25 -50
-21 -101 11 -130 11 -10 20 -24 20 -32 0 -7 11 -30 23 -51 37 -58 50 -111 50
-193 -2 -117 -46 -189 -119 -189 -34 0 -64 26 -64 56 0 24 18 44 40 44 21 0
40 40 40 83 0 49 -52 150 -95 183 -40 30 -50 31 -225 23 -36 -1 -82 3 -102 10
-34 11 -43 10 -107 -18 -145 -64 -291 -22 -291 84 0 43 30 85 61 85 27 -1 49
-27 49 -58 0 -25 5 -32 31 -41 25 -9 38 -7 65 5 61 29 56 73 -19 164 -40 50
-126 110 -156 110 -6 0 -61 25 -123 56 -112 55 -188 113 -188 144 0 25 -53 70
-82 70 -17 0 -34 -10 -47 -26 -26 -33 -26 -35 -1 -64 35 -40 22 -70 -30 -70
-10 0 -30 14 -44 31 -21 25 -26 41 -26 89 0 53 3 61 31 84 17 14 35 26 40 26
5 0 11 11 15 25 7 28 -27 91 -54 99 -83 24 -158 12 -204 -34 l-28 -28 0 -436
c0 -240 2 -436 5 -436 2 0 27 5 56 11 39 8 71 8 133 -2 73 -11 84 -16 116 -49
79 -84 221 -150 322 -150 97 0 128 10 145 44 29 60 155 121 270 132 129 12
213 -32 213 -111 0 -46 -22 -75 -57 -75 -28 0 -45 23 -41 56 4 40 -30 56 -110
51 -58 -3 -65 -6 -107 -47 -41 -40 -45 -49 -45 -92 0 -40 -4 -50 -26 -65 -24
-15 -26 -21 -21 -65 10 -82 -21 -141 -95 -179 -76 -39 -128 -18 -128 52 0 37
2 39 29 39 20 0 35 -8 46 -22 12 -18 19 -21 33 -12 9 6 23 22 29 35 12 21 10
26 -12 44 -26 21 -33 49 -15 60 17 11 11 25 -11 25 -11 0 -44 -16 -73 -35 -29
-19 -61 -35 -71 -35 -10 0 -48 -29 -85 -63 -78 -74 -229 -154 -307 -163 -45
-6 -135 6 -176 21 -16 7 -17 -5 -17 -171 l0 -177 23 19 c33 30 95 67 175 108
82 41 128 45 193 17 63 -28 150 -35 273 -22 134 15 154 22 158 58 3 27 5 28
50 25 57 -4 73 15 90 104 21 114 29 136 65 175 37 40 99 79 127 79 57 0 85
-50 48 -83 -23 -21 -42 -21 -57 -1 -28 38 -95 -27 -95 -93 0 -33 18 -83 30
-83 4 0 20 7 36 15 24 11 38 12 68 4 71 -20 166 16 309 116 88 61 96 72 69 91
-27 19 -28 34 -2 62 26 28 90 30 112 5 23 -26 31 -78 17 -105 -39 -74 -140
-149 -311 -231 -89 -43 -134 -71 -183 -117 -63 -59 -68 -61 -105 -55 -28 5
-51 1 -88 -15 -67 -29 -90 -54 -74 -80 25 -41 7 -164 -28 -185 -18 -11 -60 4
-60 21 0 9 8 29 17 45 13 22 14 32 5 41 -23 23 -60 -8 -97 -82 l-35 -70 110 0
c123 0 158 11 178 55 17 37 15 58 -8 73 -46 28 -6 125 61 148 44 15 70 4 53
-23 -6 -10 -20 -20 -30 -21 -10 -2 -23 -8 -27 -12 -10 -9 9 -50 22 -50 5 0 36
26 68 58 72 71 139 109 303 176 73 30 149 69 182 94 60 46 98 106 79 125 -6 6
-11 23 -11 37 0 51 44 66 81 29 18 -18 21 -29 16 -70 -8 -63 -28 -101 -91
-167 -58 -61 -144 -115 -261 -163 -99 -41 -144 -68 -178 -108 -27 -33 -47 -88
-47 -131 0 -15 -5 -31 -12 -38 -9 -9 23 -12 145 -12 l157 0 45 69 c49 76 148
171 178 171 35 0 137 63 196 119 83 81 146 175 186 279 19 50 35 96 35 101 0
6 -11 21 -25 34 -31 28 -25 51 15 65 21 8 33 7 46 -2 15 -11 16 -25 11 -97 -3
-46 -13 -106 -23 -133 -49 -140 -178 -306 -283 -366 -67 -37 -82 -63 -62 -106
16 -35 14 -86 -5 -112 l-15 -22 2576 0 2575 0 -15 37 c-16 38 -30 53 -52 53
-19 0 -26 -20 -13 -35 10 -12 10 -18 0 -30 -19 -23 -52 -14 -70 17 -13 25 -13
32 3 78 22 63 15 78 -56 118 -115 65 -237 221 -289 372 -10 30 -21 89 -25 130
-5 64 -3 79 12 93 17 18 46 16 73 -5 18 -16 14 -46 -8 -58 -11 -6 -20 -21 -20
-35 0 -26 53 -165 78 -205 49 -77 118 -157 174 -201 73 -59 97 -73 155 -88 30
-8 60 -29 102 -72 34 -33 61 -65 61 -70 0 -4 14 -29 32 -54 l32 -45 154 0
c143 0 154 1 147 17 -4 10 -11 38 -15 63 -15 106 -49 136 -250 221 -126 53
-218 122 -285 211 -38 52 -48 154 -17 182 43 38 101 -13 71 -62 -20 -33 -2
-69 63 -123 63 -52 100 -71 222 -116 107 -39 193 -91 268 -161 57 -54 70 -62
83 -52 21 18 19 50 -3 50 -10 0 -27 7 -38 15 -18 14 -18 15 -1 29 15 11 26 12
50 4 44 -15 56 -26 73 -66 19 -47 18 -58 -12 -85 -25 -23 -25 -25 -11 -59 25
-60 47 -68 174 -68 62 0 113 2 113 5 0 14 -54 112 -73 133 -23 25 -40 28 -55
9 -9 -10 -7 -19 4 -35 21 -30 15 -66 -12 -70 -50 -7 -89 102 -64 179 15 45 10
51 -68 89 -34 16 -54 19 -87 14 -43 -6 -45 -5 -91 45 -38 42 -76 66 -198 128
-83 42 -166 88 -183 102 -18 14 -49 39 -68 55 -49 39 -68 80 -62 128 3 21 11
45 17 53 18 22 93 19 113 -3 21 -23 22 -58 2 -66 -22 -8 -18 -31 8 -50 190
-138 284 -178 366 -156 34 9 48 8 73 -4 28 -15 32 -15 44 2 18 24 17 103 -2
130 -25 36 -53 46 -74 27 -24 -21 -57 -12 -72 21 -14 29 1 50 42 59 53 12 142
-43 176 -108 8 -15 22 -66 31 -113 10 -58 23 -94 38 -112 21 -24 26 -26 53
-16 35 13 52 3 52 -31 0 -31 34 -43 162 -56 125 -12 199 -6 271 22 26 10 63
19 83 19 37 0 201 -78 264 -125 l35 -26 3 167 c1 92 1 168 0 170 -2 1 -28 -4
-58 -12 -75 -21 -160 -13 -235 22 -87 40 -190 110 -228 155 -23 26 -42 39 -59
39 -14 0 -31 7 -39 16 -16 19 -83 54 -104 54 -17 0 -20 -21 -5 -36 13 -13 2
-44 -15 -44 -34 0 -29 -62 6 -81 17 -9 25 -7 44 11 32 30 69 24 73 -13 9 -76
-68 -102 -147 -49 -63 43 -76 66 -76 146 0 60 -3 70 -22 83 -19 13 -23 25 -23
66 0 46 -3 53 -42 90 -24 21 -53 43 -66 48 -31 12 -104 11 -137 -1 -23 -9 -26
-15 -22 -38 11 -57 -41 -84 -83 -42 -49 49 -8 136 76 159 125 35 339 -32 393
-124 14 -24 28 -34 57 -38 142 -24 283 24 400 136 34 32 55 42 110 54 63 13
151 11 191 -4 11 -4 13 71 13 435 l0 440 -34 30 c-84 74 -246 36 -246 -58 0
-20 9 -33 37 -51 30 -19 39 -33 46 -66 16 -82 -23 -158 -79 -151 -43 5 -53 32
-24 63 20 21 22 30 14 52 -5 16 -21 32 -36 37 -41 14 -76 -6 -99 -58 -31 -72
-69 -96 -349 -223 -115 -52 -207 -177 -173 -232 5 -9 22 -22 36 -29 22 -10 32
-10 62 2 30 13 35 19 30 37 -9 26 20 59 52 59 26 0 63 -50 63 -86 0 -36 -42
-86 -85 -101 -58 -21 -149 -13 -216 20 -56 26 -57 26 -129 11 -59 -12 -83 -13
-125 -3 -84 19 -141 5 -191 -44 -86 -87 -108 -247 -33 -247 18 0 39 -27 39
-49 0 -21 -41 -51 -69 -51 -74 0 -126 92 -120 212 4 62 11 86 47 158 23 47 49
96 57 110 19 32 19 91 0 116 -18 23 -20 85 -3 102 17 17 46 15 94 -9 125 -60
342 -12 536 119 105 71 181 167 283 357 55 102 130 200 177 232 18 12 64 31
102 44 87 27 162 22 264 -19 l72 -30 -2 166 -3 167 -75 38 c-69 35 -80 38
-136 34 -100 -7 -155 -56 -138 -121 10 -40 74 -50 74 -11 0 19 35 28 60 15 22
-12 26 -40 10 -71 -25 -46 -123 -64 -191 -35 -21 9 -47 34 -69 68 -34 51 -38
53 -79 52 -61 -1 -86 -25 -148 -144 -163 -309 -248 -434 -402 -588 -163 -162
-198 -175 -471 -176 -193 -1 -207 -2 -247 -24 -95 -50 -137 -108 -177 -242
-20 -66 -13 -96 25 -109 51 -18 30 -75 -33 -88 -45 -9 -53 -37 -40 -144 12
-99 47 -189 96 -246 32 -38 46 -41 64 -13 17 28 36 25 66 -11 30 -35 33 -74 9
-109 -23 -34 -33 -40 -71 -40 -45 0 -80 20 -133 77 -95 102 -152 219 -179 370
-23 126 -59 207 -100 228 -58 30 -100 9 -100 -49 0 -36 13 -52 45 -58 30 -5
25 -40 -8 -56 -53 -26 -127 19 -147 89 -15 50 -12 95 10 179 22 85 25 152 9
201 -19 54 -37 69 -86 69 -70 0 -124 -36 -138 -92 -6 -23 -3 -29 19 -39 37
-17 44 -48 16 -71 -12 -10 -27 -18 -34 -18 -52 0 -96 108 -78 194 21 102 23
125 10 145 -10 17 -8 28 16 76 31 60 29 70 -12 70 -18 0 -31 8 -42 28 -14 27
-14 29 9 48 29 24 82 25 110 2 21 -17 40 -68 45 -123 3 -22 7 -25 37 -22 49 5
120 45 161 90 36 40 83 115 148 237 47 88 130 228 165 278 34 48 179 175 271
238 242 163 551 242 783 199 304 -57 590 -82 671 -60 61 17 114 73 134 144 19
65 13 101 -21 123 -22 15 -27 15 -59 0 -19 -9 -34 -23 -34 -32 0 -18 21 -20
37 -4 6 6 20 8 32 4 43 -13 10 -95 -38 -95 -44 0 -72 20 -91 66 -11 25 -20 54
-20 65 0 46 -63 27 -119 -36 -33 -38 -36 -47 -22 -73 5 -10 5 -27 0 -40 -12
-32 -65 -27 -92 9 -28 39 -10 82 69 167 78 85 146 130 211 141 61 9 73 5 73
-25 0 -63 71 5 90 87 9 36 11 92 6 183 -9 172 9 243 91 374 l33 52 -186 0
-186 0 8 -42 c15 -93 4 -134 -74 -258 -33 -52 -47 -86 -47 -110 0 -32 -3 -36
-43 -49 -63 -20 -92 -87 -45 -106 49 -18 225 96 196 126 -36 36 7 100 55 83
39 -14 50 -53 27 -104 -44 -97 -188 -181 -349 -204 -90 -12 -99 -16 -146 -55
-98 -82 -209 -119 -427 -140 -132 -13 -135 -14 -148 -44 -11 -25 -45 -33 -74
-17 -28 14 -26 42 4 78 24 29 112 62 210 78 155 26 358 233 421 429 18 56 24
92 20 122 -4 33 -1 48 20 78 31 46 40 86 25 114 -11 20 -18 21 -216 21 -157 0
-205 -3 -205 -12 0 -7 5 -75 10 -152 l10 -139 -25 -23 c-29 -26 -33 -62 -8
-71 25 -10 75 54 68 88 -8 34 24 64 60 55 21 -5 25 -12 25 -42 0 -20 -9 -50
-22 -67 -35 -53 -140 -157 -193 -192 -63 -42 -183 -105 -199 -105 -21 0 -78
-63 -97 -108 -15 -34 -16 -48 -8 -64 9 -16 6 -24 -12 -44 -28 -30 -44 -30 -74
1 -50 49 -33 112 88 317 47 79 95 172 107 207 21 63 21 66 5 132 -9 38 -24 74
-33 81 -24 20 -72 100 -72 120 0 16 -11 18 -132 18 l-131 0 7 -102 c4 -57 12
-134 19 -173 11 -64 15 -72 50 -94 20 -13 37 -32 37 -41 0 -10 -11 -47 -24
-83 -29 -76 -52 -197 -61 -322 -12 -149 -52 -310 -96 -382 -38 -61 -109 -79
-124 -32 -9 28 20 69 49 69 43 0 69 81 87 275 24 257 -29 499 -129 591 -35 32
-36 34 -24 67 7 18 12 77 12 130 l0 97 -271 0 c-232 0 -270 -2 -266 -14 3 -8
11 -34 17 -58 21 -75 102 -280 134 -335 23 -40 38 -56 61 -62 l30 -7 -3 -85
c-4 -92 13 -197 53 -328 27 -89 34 -225 15 -262 -16 -28 -70 -25 -104 6 -41
38 -30 84 18 76 17 -2 18 3 11 71 -11 116 -67 220 -124 233 -41 9 -49 22 -49
82 -1 63 -22 107 -62 128 -26 14 -30 21 -30 59 0 94 -97 233 -176 252 -16 4
-32 12 -36 18 -4 6 -8 59 -8 119 l0 107 -1420 0 -1419 0 -3 -116 -3 -116 -39
-13 c-21 -8 -54 -28 -73 -47 -44 -42 -103 -164 -103 -211 0 -29 -6 -39 -30
-54 -36 -21 -65 -88 -57 -135 5 -38 -7 -68 -29 -68 -66 0 -136 -117 -143 -238
-3 -71 -2 -74 17 -68 14 5 24 1 30 -11 14 -26 -2 -60 -39 -82 -37 -23 -68 -16
-87 20 -20 37 -9 179 22 269 39 119 59 243 51 326 l-7 73 29 3 c22 2 35 15 59
56 46 76 154 356 154 400 0 9 -59 12 -264 12 l-264 0 -6 -22 c-11 -43 -6 -159
9 -195 16 -39 12 -50 -33 -86 -44 -36 -90 -153 -113 -287 -24 -141 -10 -383
28 -502 17 -53 26 -62 65 -72 55 -13 48 -93 -7 -89 -87 7 -143 154 -180 476
-18 163 -28 214 -56 284 -27 67 -22 104 14 121 15 8 32 24 37 36 10 27 40 253
40 302 l0 34 -135 0 -135 0 0 -24 c0 -14 -16 -44 -35 -68 -54 -66 -68 -105
-69 -183 0 -84 15 -116 191 -413 34 -57 48 -126 33 -163 -17 -40 -54 -55 -85
-35 -19 13 -23 23 -22 65 2 40 -4 57 -28 93 -25 35 -51 53 -142 98 -127 64
-158 86 -248 176 -90 90 -124 161 -93 192 30 30 98 -10 79 -46 -19 -35 47
-107 80 -87 16 11 1 57 -27 80 -24 20 -24 22 -15 110 5 50 12 116 15 148 l5
57 -203 0 c-144 0 -205 -3 -214 -12 -20 -20 -14 -75 14 -115 19 -28 24 -47 21
-73 -5 -39 20 -141 50 -210 26 -59 132 -199 187 -247 45 -39 160 -103 187
-103 26 0 171 -40 201 -56 16 -8 36 -31 46 -50 16 -34 16 -36 -3 -50 -10 -8
-29 -14 -41 -14 -22 0 -54 24 -54 40 0 13 -24 18 -172 35 -216 25 -306 56
-393 136 -41 38 -49 41 -140 54 -104 14 -228 65 -293 120 -39 33 -72 93 -72
133 0 37 31 66 63 58 30 -7 56 -51 39 -68 -23 -23 -11 -48 41 -87 85 -64 167
-74 167 -20 0 25 -43 69 -68 69 -28 0 -58 36 -43 53 8 11 2 28 -29 78 -88 140
-113 217 -92 292 l10 37 -182 0 -183 0 56 -112z m5610 -595 c18 -81 106 -302
135 -338 24 -29 25 -30 40 -10 12 16 17 18 28 7 9 -9 13 -47 13 -135 0 -100 5
-144 29 -242 20 -86 29 -148 30 -222 1 -94 -1 -103 -23 -127 -34 -36 -94 -37
-117 -2 -22 35 -15 69 16 76 23 5 25 11 28 70 5 82 -13 187 -38 228 -16 25
-27 32 -51 32 -31 0 -31 1 -26 36 14 85 -29 177 -94 205 l-32 13 7 234 c3 129
9 239 12 244 12 18 31 -13 43 -69z m-2906 -45 c4 -62 7 -170 7 -240 0 -117 -2
-128 -18 -128 -10 0 -36 -18 -57 -40 -39 -40 -40 -42 -44 -125 l-3 -84 -31 -3
c-58 -6 -87 -84 -87 -240 0 -66 3 -79 18 -84 57 -18 67 -51 26 -83 -33 -26
-74 -27 -103 -3 -50 40 -47 157 9 402 23 99 30 152 30 234 0 88 3 106 15 106
8 0 15 -7 15 -15 0 -8 9 -15 20 -15 19 0 47 47 66 110 4 14 21 57 39 95 17 39
40 105 50 148 26 110 41 100 48 -35z m-97 -739 c3 -6 1 -16 -5 -22 -16 -16
-13 -73 5 -91 20 -20 33 -20 56 1 10 9 20 14 22 12 8 -8 9 -179 1 -187 -12
-12 -84 80 -105 136 -22 59 -26 132 -8 150 15 15 25 15 34 1z m3102 -1 c24
-24 5 -104 -48 -207 -21 -41 -77 -98 -86 -88 -4 4 -9 52 -12 107 -5 110 1 120
46 78 l24 -23 19 24 c21 26 25 71 8 88 -6 6 -8 16 -5 22 9 15 39 14 54 -1z
m-31 -309 c16 -16 5 -39 -17 -39 -23 0 -34 16 -26 35 6 18 28 19 43 4z m-3054
-14 c1 -5 -6 -11 -15 -13 -11 -2 -18 3 -18 13 0 17 30 18 33 0z m-2086 -585
c31 -28 37 -57 19 -85 -13 -20 -25 -25 -55 -25 -54 0 -69 8 -87 42 -15 29 -13
39 14 71 21 24 82 22 109 -3z m7301 0 c28 -26 28 -50 1 -84 -16 -21 -29 -26
-64 -26 -50 0 -75 19 -75 58 0 63 90 97 138 52z"/>
<path d="M1115 2700 c-24 -9 -67 -69 -91 -125 -33 -81 -8 -216 63 -332 71
-114 118 -155 239 -207 155 -67 383 -90 478 -48 53 24 137 106 165 160 26 51
51 139 51 179 0 42 -36 152 -58 177 -33 37 -105 76 -142 76 -45 0 -60 -15 -60
-58 0 -46 -68 -116 -123 -126 -80 -15 -156 57 -165 157 -5 66 -28 86 -94 87
-42 0 -48 -3 -48 -21 0 -19 -4 -20 -35 -15 -49 10 -80 -22 -71 -73 3 -20 6
-42 6 -49 0 -7 16 -20 35 -28 29 -12 35 -20 35 -44 0 -47 -31 -57 -88 -28 -63
32 -92 87 -92 177 0 46 6 79 19 103 23 47 18 56 -24 38z"/>
<path d="M7516 2701 c-3 -5 2 -23 11 -42 53 -106 5 -257 -93 -289 -30 -10 -38
-9 -55 6 -27 24 -20 55 16 74 41 20 45 28 45 81 0 57 -22 82 -67 73 -25 -5
-31 -2 -36 15 -4 17 -13 21 -46 21 -67 0 -117 -36 -96 -70 13 -21 -26 -109
-61 -139 -43 -38 -73 -46 -118 -31 -68 22 -116 83 -116 145 0 50 -79 48 -149
-2 -55 -41 -82 -86 -100 -171 -28 -132 74 -319 209 -380 47 -22 67 -25 147
-24 164 4 317 46 436 122 107 68 216 271 217 404 0 87 -116 253 -144 207z"/>
<path d="M63 1093 c-13 -2 -32 -17 -43 -33 -18 -25 -20 -44 -20 -183 0 -112 3
-157 13 -164 23 -19 119 -36 173 -30 82 8 153 46 238 127 42 40 76 76 76 81 0
13 -37 11 -62 -2 -12 -6 -48 -31 -81 -55 -78 -58 -177 -88 -230 -72 -72 22
-111 103 -69 141 39 36 83 14 79 -39 -2 -26 1 -29 32 -32 48 -5 90 15 98 47 3
14 14 34 25 44 24 24 18 33 -70 107 -72 61 -106 75 -159 63z"/>
<path d="M8502 1078 c-138 -102 -164 -136 -122 -158 12 -6 20 -21 20 -35 0
-34 39 -57 87 -53 36 3 38 5 41 41 4 41 18 53 55 43 36 -9 50 -49 32 -92 -11
-26 -26 -40 -61 -56 l-47 -20 -75 23 c-51 16 -95 39 -144 76 -63 48 -118 68
-118 44 0 -5 24 -34 54 -64 130 -132 245 -171 382 -131 l54 15 0 167 c-1 180
-4 193 -54 212 -42 15 -70 12 -104 -12z"/>
<path d="M1731 71 c-12 -12 -21 -25 -21 -30 0 -5 -3 -16 -6 -25 -5 -14 3 -16
52 -15 47 0 54 2 36 10 -19 7 -23 15 -20 40 4 39 -14 47 -41 20z"/>
</g>
</svg>
